<svg width="22" height="22" viewBox="0 0 22 22" fill="none" xmlns="http://www.w3.org/2000/svg">
<path d="M12.8796 11.0002L21.2796 2.61358C21.5307 2.36251 21.6717 2.02198 21.6717 1.66691C21.6717 1.31185 21.5307 0.971319 21.2796 0.720247C21.0285 0.469176 20.688 0.328125 20.3329 0.328125C19.9779 0.328125 19.6373 0.469176 19.3863 0.720247L10.9996 9.12025L2.61293 0.720247C2.36185 0.469176 2.02133 0.328125 1.66626 0.328125C1.31119 0.328125 0.970665 0.469176 0.719593 0.720247C0.468521 0.971319 0.327471 1.31185 0.327471 1.66691C0.327471 2.02198 0.468521 2.36251 0.719593 2.61358L9.11959 11.0002L0.719593 19.3869C0.594622 19.5109 0.49543 19.6583 0.427738 19.8208C0.360047 19.9833 0.325195 20.1576 0.325195 20.3336C0.325195 20.5096 0.360047 20.6839 0.427738 20.8463C0.49543 21.0088 0.594622 21.1563 0.719593 21.2802C0.843544 21.4052 0.991012 21.5044 1.15349 21.5721C1.31597 21.6398 1.49024 21.6746 1.66626 21.6746C1.84228 21.6746 2.01655 21.6398 2.17903 21.5721C2.34151 21.5044 2.48898 21.4052 2.61293 21.2802L10.9996 12.8802L19.3863 21.2802C19.5102 21.4052 19.6577 21.5044 19.8202 21.5721C19.9826 21.6398 20.1569 21.6746 20.3329 21.6746C20.5089 21.6746 20.6832 21.6398 20.8457 21.5721C21.0082 21.5044 21.1556 21.4052 21.2796 21.2802C21.4046 21.1563 21.5038 21.0088 21.5714 20.8463C21.6391 20.6839 21.674 20.5096 21.674 20.3336C21.674 20.1576 21.6391 19.9833 21.5714 19.8208C21.5038 19.6583 21.4046 19.5109 21.2796 19.3869L12.8796 11.0002Z" fill="#272A33"/>
</svg>
